<?xml version="1.0" encoding="UTF-8" standalone="no"?>
<!-- Created with Inkscape (http://www.inkscape.org/) -->

<svg
   width="270.93332mm"
   height="270.91849mm"
   viewBox="0 0 270.93332 270.91849"
   version="1.1"
   id="svg1"
   xml:space="preserve"
   inkscape:version="1.3.2 (091e20e, 2023-11-25, custom)"
   sodipodi:docname="logo.svg"
   inkscape:export-filename="logo.png"
   inkscape:export-xdpi="12"
   inkscape:export-ydpi="12"
   xmlns:inkscape="http://www.inkscape.org/namespaces/inkscape"
   xmlns:sodipodi="http://sodipodi.sourceforge.net/DTD/sodipodi-0.dtd"
   xmlns="http://www.w3.org/2000/svg"
   xmlns:svg="http://www.w3.org/2000/svg"><sodipodi:namedview
     id="namedview1"
     pagecolor="#505050"
     bordercolor="#eeeeee"
     borderopacity="1"
     inkscape:showpageshadow="0"
     inkscape:pageopacity="0"
     inkscape:pagecheckerboard="0"
     inkscape:deskcolor="#505050"
     inkscape:document-units="mm"
     inkscape:zoom="0.5297696"
     inkscape:cx="315.23138"
     inkscape:cy="293.52383"
     inkscape:window-width="1920"
     inkscape:window-height="1017"
     inkscape:window-x="1912"
     inkscape:window-y="-8"
     inkscape:window-maximized="1"
     inkscape:current-layer="layer1" /><defs
     id="defs1"><clipPath
       id="clip0_2_31"><rect
         width="256"
         height="192"
         fill="#ffffff"
         id="rect8"
         x="0"
         y="0" /></clipPath></defs><g
     inkscape:label="Layer 1"
     inkscape:groupmode="layer"
     id="layer1"
     transform="translate(16.596748,-3.3900723)"><circle
       style="fill:#f9f9f9;stroke:none;stroke-width:0.264998"
       id="path8"
       cx="118.86992"
       cy="138.97418"
       r="135.33438" /><path
       fill-rule="evenodd"
       clip-rule="evenodd"
       d="m 118.86992,3.3900723 c -74.845336,0 -135.466668,60.6213317 -135.466668,135.4666677 0,59.944 38.777332,110.57467 92.625332,128.524 6.773333,1.18533 9.313333,-2.87867 9.313333,-6.43467 0,-3.21733 -0.169334,-13.88533 -0.169334,-25.23066 -34.035999,6.26533 -42.841332,-8.29734 -45.550665,-15.91734 -1.524,-3.89466 -8.128,-15.91733 -13.885333,-19.13466 -4.741334,-2.54 -11.514667,-8.80534 -0.169334,-8.97467 10.668,-0.16933 18.288,9.82133 20.828,13.88533 12.192,20.48934 31.665332,14.732 39.454666,11.176 1.185333,-8.80533 4.741333,-14.732 8.635999,-18.11866 -30.141332,-3.38667 -61.637332,-15.07067 -61.637332,-66.88667 0,-14.732 5.249334,-26.924 13.885333,-36.406665 -1.354666,-3.38667 -6.095999,-17.272004 1.354667,-35.898671 0,0 11.345333,-3.556 37.253333,13.885333 10.837333,-3.048 22.352003,-4.572 33.866673,-4.572 11.51466,0 23.02933,1.524 33.86666,4.572 25.908,-17.610666 37.25333,-13.885333 37.25333,-13.885333 7.45067,18.626667 2.70934,32.512001 1.35467,35.898671 8.636,9.482665 13.88533,21.505335 13.88533,36.406665 0,51.98533 -31.66533,63.5 -61.80666,66.88667 4.91067,4.23333 9.144,12.36133 9.144,25.06133 0,18.11867 -0.16934,32.68133 -0.16934,37.25333 0,3.556 2.54,7.78934 9.31334,6.43467 53.50933,-17.94933 92.28666,-68.74933 92.28666,-128.524 0,-74.845336 -60.62133,-135.4666677 -135.46666,-135.4666677 z"
       fill="#1b1f23"
       id="path1"
       style="stroke-width:16.9333" /><g
       clip-path="url(#clip0_2_31)"
       id="g7"
       transform="matrix(0.59618723,-0.15519902,0.15519902,0.59618723,7.196346,103.23986)"
       style="fill:none;stroke-width:0.429478"><path
         d="m 84.38,108.352 c -9.556,2.712 -15.826,7.467 -19.956,12.218 3.956,-3.461 9.255,-6.639 16.402,-8.665 7.311,-2.072 13.548,-2.057 18.702,-1.062 v -4.03 c -4.397,-0.402 -9.437,-0.082 -15.148,1.539 z m -20.393,-33.877 -35.49,9.35 c 0,0 0.646,0.914 1.844,2.133 l 30.092,-7.93 c 0,0 -0.427,5.495 -4.13,10.41 7.005,-5.299 7.684,-13.963 7.684,-13.963 z m 29.709,83.41 C 43.75,171.337 17.326,113.455 9.32599,83.413 c -3.696,-13.868 -5.31,-24.37 -5.74,-31.148 -0.04091,-0.613 -0.03255,-1.2283 0.025,-1.84 -2.59,0.155 -3.831002,1.502 -3.579002,5.395 0.43,6.773 2.044002,17.275 5.740002,31.147 7.99701,30.038 34.42401,87.92 84.37001,74.468 10.871,-2.929 19.038,-8.263 25.17,-15.073 -5.652,5.104 -12.724,9.123 -21.616,11.523 z M 103.08,39.05 v 3.555 h 19.59 c -0.401,-1.259 -0.806,-2.393 -1.208,-3.555 z"
         fill="#2d4552"
         id="path1-3"
         style="stroke-width:0.429478" /><path
         d="m 127.05,68.325 c 8.81,2.503 13.47,8.68 15.933,14.146 l 9.824,2.79 c 0,0 -1.34,-19.132 -18.645,-24.047 -16.189,-4.6 -26.151,8.995 -27.363,10.754 4.71,-3.355 11.586,-6.102 20.251,-3.643 z m 78.197,14.234 c -16.204,-4.62 -26.162,9.003 -27.356,10.737 4.713,-3.351 11.586,-6.099 20.247,-3.629 8.797,2.506 13.452,8.676 15.923,14.146 l 9.837,2.8 c 0,0 -1.361,-19.135 -18.651,-24.054 z m -9.76,50.443 -81.718,-22.845 c 0,0 0.885,4.485 4.279,10.293 l 68.803,19.234 c 5.664,-3.277 8.636,-6.682 8.636,-6.682 z m -56.655,49.174 C 74.127,164.828 81.949,82.386 92.419,43.32 96.73,27.22 101.162,15.254 104.838,7.232 102.645,6.781 100.828,7.936 99.034,11.586 95.13,19.5 90.14,32.387 85.312,50.427 c -10.467,39.066 -18.29,121.506 46.412,138.854 30.497,8.17 54.256,-4.247 71.966,-23.749 -16.81,15.226 -38.274,23.763 -64.858,16.644 z"
         fill="#2d4552"
         id="path2"
         style="stroke-width:0.429478" /><path
         d="m 103.081,138.565 v -16.637 l -46.223,13.108 c 0,0 3.415,-19.846 27.522,-26.684 7.311,-2.072 13.549,-2.058 18.701,-1.063 V 39.05 h 23.145 c -2.52,-7.787 -4.958,-13.782 -7.006,-17.948 -3.387,-6.895 -6.859,-2.324 -14.741,4.269 C 98.927,30.009 84.896,39.904 63.781,45.593 42.667,51.287 25.596,49.777 18.474,48.543 8.377,46.801 3.096,44.583 3.59,52.264 c 0.43,6.774 2.043,17.277 5.74,31.148 7.996,30.039 34.424,87.92 84.37,74.468 13.046,-3.515 22.254,-10.464 28.637,-19.32 h -19.256 v 0.004 z m -74.588,-54.74 35.494,-9.35 c 0,0 -1.034,13.654 -14.34,17.162 -13.31,3.504 -21.154,-7.812 -21.154,-7.812 z"
         fill="#e2574c"
         id="path3"
         style="stroke-width:0.429478" /><path
         d="m 236.664,39.84 c -9.226,1.617 -31.361,3.632 -58.716,-3.7 -27.363,-7.328 -45.517,-20.144 -52.71,-26.16799 -10.197,-8.54 -14.682,-14.476 -19.096,-5.498 C 102.24,12.392 97.249,25.279 92.419,43.32 81.953,82.386 74.13,164.825 138.832,182.173 c 64.687,17.333 99.126,-57.978 109.593,-97.047 4.83,-18.037 6.948,-31.695 7.53,-40.502 0.665,-9.976 -6.188,-7.08 -19.291,-4.784 z M 106.668,72.161 c 0,0 10.196,-15.859 27.49,-10.943 17.305,4.915 18.645,24.046 18.645,24.046 z m 42.215,71.163 c -30.419,-8.91 -35.11,-33.167 -35.11,-33.167 l 81.714,22.846 c 0,-0.004 -16.494,19.12 -46.604,10.32 z m 28.89,-49.85 c 0,0 10.183,-15.847 27.474,-10.918 17.29,4.923 18.651,24.054 18.651,24.054 L 177.774,93.474 Z"
         fill="#2ead33"
         id="path4"
         style="stroke-width:0.429478" /><path
         d="m 86.9279,126.51 -30.07,8.522 c 0,0 3.266,-18.609 25.418,-25.983 l -17.026,-63.902 -1.471,0.447 c -21.115,5.694 -38.185,4.184 -45.307,2.95 -10.09696,-1.741 -15.37896,-3.96 -14.88496,3.722 0.43,6.774 2.044,17.276 5.74,31.147 7.99696,30.039 34.42496,87.92 84.36996,74.468 l 1.471,-0.462 -8.239,-30.91 z m -58.435,-42.685 35.494,-9.351 c 0,0 -1.034,13.654 -14.34,17.162 -13.31,3.504 -21.154,-7.811 -21.154,-7.811 z"
         fill="#d65348"
         id="path5"
         style="stroke-width:0.429478" /><path
         d="m 150.255,143.658 -1.376,-0.335 c -30.419,-8.91 -35.11,-33.166 -35.11,-33.166 l 42.137,11.778 22.308,-85.724 -0.27,-0.07 C 150.582,28.812 132.428,15.996 125.234,9.97099 115.038,1.43099 110.552,-4.50401 106.138,4.47399 102.24,12.392 97.249,25.279 92.419,43.32 81.953,82.386 74.13,164.825 138.832,182.172 l 1.326,0.3 z M 106.668,72.16 c 0,0 10.196,-15.859 27.49,-10.943 17.305,4.915 18.645,24.046 18.645,24.046 z"
         fill="#1d8d22"
         id="path6"
         style="stroke-width:0.429478" /><path
         d="m 88.46,126.072 -8.064,2.289 c 1.906,10.74 5.264,21.047 10.534,30.152 0.918,-0.202 1.828,-0.376 2.762,-0.632 2.449,-0.66 4.72,-1.479 6.906,-2.371 -5.89,-8.74 -9.786,-18.804 -12.138,-29.438 z M 85.312,50.428 c -4.144,15.467 -7.852,37.73 -6.831,60.06 1.826,-0.793 3.756,-1.532 5.9,-2.14 l 1.492,-0.334 c -1.82,-23.852 2.114,-48.157 6.546,-64.694 1.0507,-3.9222 2.1752,-7.8242 3.373,-11.704 -1.9516,1.2481 -3.944,2.4311 -5.974,3.547 -1.6339,5.0485 -3.1364,10.1385 -4.506,15.265 z"
         fill="#c04b41"
         id="path7"
         style="stroke-width:0.429478" /></g></g></svg>
